<?xml version="1.0" encoding="utf-8"?>
<!-- Generator: Adobe Illustrator 23.0.6, SVG Export Plug-In . SVG Version: 6.00 Build 0)  -->
<svg version="1.1" id="Capa_1" xmlns="http://www.w3.org/2000/svg" xmlns:xlink="http://www.w3.org/1999/xlink" x="0px" y="0px"
	 viewBox="0 0 800 4400" style="enable-background:new 0 0 800 4400;" xml:space="preserve">
<style type="text/css">
	.st0{fill:url(#Background_Gradient_1_);}
	.st1{clip-path:url(#SVGID_2_);}
	.st2{fill:#8D6FD9;}
	.st3{fill:#8B78E8;}
	.st4{fill:#7063C2;}
	.st5{fill:#7253AD;}
	.st6{fill:#634E96;}
	.st7{fill:url(#tree_crowns-2_1_);}
	.st8{fill:#7159AB;}
	.st9{clip-path:url(#SVGID_4_);}
	.st10{opacity:0.5;fill:#618BFF;enable-background:new    ;}
	.st11{opacity:0.5;}
	.st12{opacity:0.48;fill:#B5D2FF;enable-background:new    ;}
	.st13{opacity:0.48;fill:#3EC2BF;enable-background:new    ;}
	.st14{fill:url(#SVGID_5_);}
	.st15{fill:url(#SVGID_6_);}
	.st16{fill:url(#SVGID_7_);}
	.st17{fill:url(#SVGID_8_);}
	.st18{fill:url(#SVGID_9_);}
	.st19{fill:url(#SVGID_10_);}
	.st20{fill:url(#SVGID_11_);}
	.st21{fill:url(#SVGID_12_);}
	.st22{opacity:0.26;fill:#FFFFFF;enable-background:new    ;}
	.st23{opacity:0.54;fill:#FFFFFF;enable-background:new    ;}
	.st24{fill:none;}
	.st25{fill:#3EC2BF;}
	.st26{clip-path:url(#SVGID_14_);}
	.st27{fill:#DB2E73;}
	.st28{fill:#E63B80;}
	.st29{fill:#ED478B;}
	.st30{fill:#F05B98;}
	.st31{clip-path:url(#SVGID_16_);}
	.st32{fill:#65E0DE;}
	.st33{fill:#EB4683;}
	.st34{fill:#CC336B;}
	.st35{clip-path:url(#SVGID_18_);}
	.st36{fill:#FF9E75;}
	.st37{fill:#FFB2A1;}
	.st38{fill:#FA8A6E;}
	.st39{fill:#FFD591;}
	.st40{fill:#FC7574;}
</style>
<title>space-scrolling-bg-final</title>
<g>
	<g id="Scrolling_BG">
		
			<linearGradient id="Background_Gradient_1_" gradientUnits="userSpaceOnUse" x1="401" y1="4378.1494" x2="401" y2="229.1668" gradientTransform="matrix(1 0 0 -1 0 4400)">
			<stop  offset="0" style="stop-color:#493466"/>
			<stop  offset="2.000000e-02" style="stop-color:#4B366C"/>
			<stop  offset="0.17" style="stop-color:#5E49A3"/>
			<stop  offset="0.23" style="stop-color:#606FCE"/>
			<stop  offset="0.3" style="stop-color:#639AFF"/>
			<stop  offset="0.73" style="stop-color:#7EBBFF"/>
			<stop  offset="0.75" style="stop-color:#81B4FC"/>
			<stop  offset="0.85" style="stop-color:#8F96F1"/>
			<stop  offset="0.94" style="stop-color:#9884EA"/>
			<stop  offset="1" style="stop-color:#9B7DE8"/>
		</linearGradient>
		<rect id="Background_Gradient" x="1" y="2" class="st0" width="800" height="5011"/>
		<g id="Forest_Ground">
			<g>
				<defs>
					<rect id="SVGID_1_" y="3332.8" width="800" height="1680.2"/>
				</defs>
				<clipPath id="SVGID_2_">
					<use xlink:href="#SVGID_1_"  style="overflow:visible;"/>
				</clipPath>
				<g class="st1">
					<g id="forest">
						<g id="bushes">
							<path class="st2" d="M804.3,4376.9c16-44.9-7.4-94.2-52.3-110.2c-37.2-13.3-78.6,0.4-100.6,33.2c-8.2-10.2-18.4-18.6-30-24.6
								c-6.5-36.6-41.5-61-78.1-54.5c-36.6,6.5-61,41.5-54.5,78.1c0.6,3.4,1.5,6.8,2.6,10.2c-25.3-26.2-67.1-27-93.3-1.7
								c-19.9,19.1-25.7,48.6-14.7,73.9c-13.1-4.9-27-7.4-41-7.4c-5.8,0-11.7,0.4-17.4,1.3c-7.6-7.6-16-14.3-25.2-19.9
								c10.8-20.9,2.6-46.5-18.3-57.3s-46.5-2.6-57.3,18.3c-0.3,0.6-0.6,1.2-0.9,1.8c-33.1-31.9-85.8-30.8-117.7,2.3
								c-6.8,7.1-12.3,15.3-16.2,24.2c-7.2-3.1-14.7-5.7-22.4-7.6c18.3-15.5,20.6-43,5.1-61.3s-43-20.6-61.3-5.1s-20.6,43-5.1,61.3
								c0.7,0.8,1.4,1.6,2.1,2.3c-80.6,12.7-135.7,88.3-123,168.9c12.7,80.6,88.3,135.7,168.9,123c35-5.5,66.8-23.4,89.7-50.4
								c40.3,32.8,95.8,39.6,142.8,17.7c42.1,23,93.9,18,130.9-12.6c34.4,14,73.6,9.2,103.5-12.9c50.1,47.5,127.2,51.7,182.2,10
								c50.1,38.9,122.2,29.8,161-20.3c38.9-50.1,29.8-122.2-20.3-161C831.9,4387.6,818.5,4380.9,804.3,4376.9z"/>
							<circle class="st2" cx="340.5" cy="4291.8" r="22.5"/>
							<circle class="st2" cx="285.7" cy="4216" r="29.3"/>
							<circle class="st2" cx="341.2" cy="4145.5" r="8.3"/>
							<circle class="st2" cx="608.9" cy="4194.3" r="19.5"/>
							<circle class="st2" cx="760.4" cy="4170.3" r="25.5"/>
							<circle class="st2" cx="763.4" cy="4119.3" r="10.5"/>
							<circle class="st2" cx="267" cy="4168.8" r="10.5"/>
							<circle class="st2" cx="57.7" cy="4231" r="8.3"/>
						</g>
						<path id="ground" class="st3" d="M800,5013H0v-444.8c63.6,13.4,128.6,18.3,193.5,14.6c148.7-8.7,209.4-58.9,333-67.5
							c63.1-4.4,156.3,1.2,273.6,52.9L800,5013L800,5013z"/>
						<g id="trees">
							<g id="tree_trunks">
								<polygon class="st3" points="24.8,3605.8 -10.2,3605.8 -30.2,4787.8 44.8,4787.8 								"/>
								<path class="st3" d="M15.8,3921.3c-5.5,0-9.9-4.4-9.9-9.9s4.4-9.9,9.9-9.9c15.9,0,33.1-23.2,46.1-62
									c14.5-43.4,22.5-101.3,22.5-163.1c0-5.5,4.4-9.9,9.9-9.9c5.5,0,9.9,4.4,9.9,9.9c0,63.9-8.3,124.1-23.5,169.4
									C59.9,3908.2,33.9,3921.3,15.8,3921.3z"/>
								<path class="st3" d="M23.4,4093.5c-5.5,0-9.9-4.4-9.9-9.9s4.4-9.9,9.9-9.9c19.3,0,37.7-12.3,51.9-34.6
									c15.1-23.7,23.4-55.5,23.4-89.5c0-5.5,4.4-9.9,9.9-9.9c5.5,0,9.9,4.4,9.9,9.9l0,0c0,37.7-9.4,73.3-26.5,100.1
									C74.1,4077.9,49.7,4093.5,23.4,4093.5z"/>
								<path class="st3" d="M35.5,4501.4c-5.5,0-9.9-4.4-9.9-9.9s4.4-9.9,9.9-9.9c25.3,0,46.7-36.2,46.7-79.1
									c0-5.5,4.4-9.9,9.9-9.9c5.5,0,9.9,4.4,9.9,9.9c0,25.6-6.4,49.9-18.1,68.3C71.3,4490.5,54.1,4501.4,35.5,4501.4z"/>
								<polygon class="st3" points="412.1,3605.8 377.1,3605.8 357.1,4787.8 432.1,4787.8 								"/>
								<path class="st3" d="M381.4,3831.9c-28.2,0-54.5-13.4-74.1-37.7c-19.1-23.7-29.7-55.1-29.7-88.5c0-5.5,4.4-9.9,9.9-9.9
									c5.5,0,9.9,4.4,9.9,9.9c0,58.7,37.7,106.4,84,106.4c5.5,0,9.9,4.4,9.9,9.9S386.8,3831.9,381.4,3831.9z"/>
								<path class="st3" d="M384.8,4252.1c-25.3,0-48.7-15.5-65.9-43.7c-16.3-26.6-25.2-61.9-25.2-99.2c0-5.5,4.4-9.9,9.9-9.9
									c5.5,0,9.9,4.4,9.9,9.9c0,33.7,7.9,65.3,22.3,88.8c13.5,22,30.9,34.2,49,34.2c5.5,0,9.9,4.4,9.9,9.9
									C394.7,4247.7,390.3,4252.1,384.8,4252.1z"/>
								<path class="st3" d="M400.3,4142.1c-5.5,0-9.9-4.4-9.9-9.9s4.4-9.9,9.9-9.9c19.4,0,38-12.2,52.3-34.4
									c15.1-23.5,23.5-55,23.5-88.6c0-5.5,4.4-9.9,9.9-9.9c5.5,0,9.9,4.4,9.9,9.9c0,37.4-9.5,72.7-26.7,99.4
									C451.2,4126.7,426.7,4142.1,400.3,4142.1z"/>
								<polygon class="st3" points="726.8,3605.8 691.8,3605.8 671.8,4787.8 746.8,4787.8 								"/>
								<path class="st3" d="M717.8,3948.6c-5.5,0-9.9-4.4-9.9-9.9s4.4-9.9,9.9-9.9c15.9,0,33.2-22.6,46.1-60.5
									c14.5-42.4,22.4-98.9,22.4-159.3c0-5.5,4.4-9.9,9.9-9.9s9.9,4.4,9.9,9.9c0,62.5-8.3,121.3-23.5,165.7
									C761.8,3935.8,735.9,3948.6,717.8,3948.6z"/>
								<path class="st3" d="M722,4255.8c-5.5,0-9.9-4.4-9.9-9.9s4.4-9.9,9.9-9.9c13.5,0,26.4-8.8,36.5-24.7
									c11-17.3,17-40.6,17-65.6c0-5.5,4.4-9.9,9.9-9.9s9.9,4.4,9.9,9.9l0,0c0,28.6-7.2,55.7-20.1,76.2
									C761.5,4243.7,742.5,4255.8,722,4255.8z"/>
							</g>
							<g id="tree_trunks-2">
								<polygon class="st4" points="183.7,3605.8 148.7,3605.8 128.7,4787.8 203.7,4787.8 								"/>
								<path class="st4" d="M157.8,3875.8c-33.4,0-64.3-25.5-86.8-71.9c-21.4-44.1-33.2-102.5-33.2-164.6c0-5.5,4.4-9.9,9.9-9.9
									s9.9,4.4,9.9,9.9l0,0c0,59.1,11.1,114.5,31.2,155.9c19,39.2,43.5,60.7,68.9,60.7c5.5,0,9.9,4.4,9.9,9.9
									S163.2,3875.8,157.8,3875.8C157.8,3875.8,157.8,3875.8,157.8,3875.8z"/>
								<path class="st4" d="M176.7,3876.7c-5.5,0-9.9-4.4-9.9-9.9s4.4-9.9,9.9-9.9c27.3,0,53.5-23.1,73.8-65.1
									c21.4-44.3,33.2-103.4,33.2-166.5c0-5.5,4.4-9.9,9.9-9.9c5.5,0,9.9,4.4,9.9,9.9l0,0c0,66-12.5,128.3-35.2,175.2
									C244.6,3849.6,212,3876.7,176.7,3876.7z"/>
								<path class="st4" d="M160.2,4273.8c-55.6,0-100.9-49.4-100.9-110.2c0-5.5,4.4-9.9,9.9-9.9c5.5,0,9.9,4.4,9.9,9.9
									c0,49.8,36.3,90.3,81,90.3c5.5,0,9.9,4.4,9.9,9.9C170.2,4269.3,165.7,4273.8,160.2,4273.8
									C160.2,4273.8,160.2,4273.8,160.2,4273.8z"/>
								<polygon class="st4" points="513.8,3605.8 478.8,3605.8 458.8,4787.8 533.8,4787.8 								"/>
								<path class="st4" d="M487.8,3948.6c-33.5,0-64.3-25.9-86.8-72.9c-21.4-44.7-33.2-103.9-33.2-166.8c0-5.5,4.4-9.9,9.9-9.9
									c5.5,0,9.9,4.4,9.9,9.9l0,0c0,60,11.1,116.1,31.3,158.2c18.8,39.2,43.9,61.6,68.9,61.6c5.5,0,9.9,4.4,9.9,9.9
									C497.7,3944.2,493.3,3948.6,487.8,3948.6C487.8,3948.6,487.8,3948.6,487.8,3948.6z"/>
								<path class="st4" d="M492.4,3793.8c-22.4,0-43.1-11.9-58.5-33.5c-14.6-20.6-22.7-47.8-22.7-76.6c0-5.5,4.4-9.9,9.9-9.9
									c5.5,0,9.9,4.4,9.9,9.9l0,0c0,24.8,6.8,47.9,19,65.1c11.5,16.2,26.6,25.2,42.3,25.2c5.5,0,9.9,4.4,9.9,9.9
									C502.3,3789.4,497.9,3793.8,492.4,3793.8z"/>
								<path class="st4" d="M509,4255.8c-5.5,0-9.9-4.4-9.9-9.9s4.4-9.9,9.9-9.9c13.5,0,26.4-8.8,36.5-24.7
									c11-17.3,17-40.6,17-65.6c0-5.5,4.4-9.9,9.9-9.9s9.9,4.4,9.9,9.9l0,0c0,28.6-7.2,55.7-20.1,76.2
									C548.5,4243.7,529.5,4255.8,509,4255.8z"/>
							</g>
							<path id="tree_crowns" class="st5" d="M783.3,3701.3c-1.4-65.7-55.7-117.9-121.4-116.5c-15.6,0.3-30.9,3.7-45.2,9.9
								c-13.3-58.7-71.7-95.5-130.4-82.1c-9.2,2.1-18.2,5.4-26.6,9.8c-40.5-46-110.7-50.5-156.7-9.9c-9,7.9-16.6,17.2-22.6,27.5
								c-48.1-31.7-112.8-18.3-144.5,29.8c-0.1,0.2-0.3,0.4-0.4,0.6c-3.2-0.5-6.5-0.8-9.8-0.9c-14.5-60.2-68.4-102.7-130.3-102.7
								c-74,0-134,60-134,134s60,134,134,134c29.9,0,59-10,82.5-28.4c24.3,18.1,57.1,20,83.3,4.8c35.9,26.4,84.5,27.1,121.1,1.8
								c17.1,28,53.6,36.8,81.6,19.7c10.2-6.3,18.3-15.4,23.2-26.4c15.2-1.5,29.8-6,43.1-13.4c11,11.9,24.4,21.1,39.4,27.2
								c2.7,25,20.9,45.6,45.5,51.3c-9.7,21.1-0.4,46,20.7,55.7s46,0.4,55.7-20.7c1-2.1,1.8-4.3,2.4-6.6
								c26.8,19.6,60.5,27.2,93.1,21c25,36.4,74.8,45.6,111.2,20.6c36.4-25,45.6-74.8,20.6-111.2
								C810.1,3717.2,797.7,3707.2,783.3,3701.3z"/>
						</g>
						<path class="st4" d="M800,5013H0v-349.9c26.5-10.9,55.7-26.3,111-33.9c142.5-19.5,189.9,25.3,339,3
							c160.5-24,280.5-7.5,350,30.9L800,5013L800,5013z"/>
						<path id="ground-2" class="st6" d="M800,5013H0v-269c39.7-16,99.1-35,172.5-39.7c102.9-6.6,176.7,18.5,229.9,32.2
							c88.6,22.8,219,39.3,397.6,7.5V5013z"/>
						<g id="front_trees">
							<polygon class="st6" points="225.7,3605.8 190.7,3605.8 170.7,4787.8 245.7,4787.8 							"/>
							<path class="st6" d="M201.2,3806.8c-29.8,0-57.4-18.5-77.8-52.1c-19.4-32-30.1-74.4-30.1-119.4c0-5.5,4.4-9.9,9.9-9.9
								c5.5,0,9.9,4.4,9.9,9.9c0,41.4,9.7,80.1,27.3,109.1c16.6,27.4,38.2,42.5,60.8,42.5c5.5,0.3,9.7,5,9.4,10.4
								C210.3,3802.5,206.3,3806.5,201.2,3806.8z"/>
							<path class="st6" d="M218.7,3930.9c-5.5,0-9.9-4.4-9.9-9.9s4.4-9.9,9.9-9.9c26.5,0,53.3-29.1,73.5-79.8
								c21.6-54.4,33.5-126.9,33.5-204.3c0-5.5,4.4-9.9,9.9-9.9c5.5,0,9.9,4.4,9.9,9.9l0,0c0,79.8-12.4,155-35,211.6
								C287,3898.1,254.4,3930.9,218.7,3930.9z"/>
							<path class="st6" d="M217.2,4083.6c-5.5,0-9.9-4.4-9.9-9.9s4.4-9.9,9.9-9.9c30.4,0,55.1-32.2,55.1-71.8
								c0-5.5,4.4-9.9,9.9-9.9c5.5,0,9.9,4.4,9.9,9.9c0,24.1-7.5,46.8-21.2,64C256.8,4073.8,237.7,4083.6,217.2,4083.6z"/>
							<polygon class="st6" points="648.2,3605.8 683.2,3605.8 703.2,4785.8 628.2,4785.8 							"/>
							<path class="st6" d="M672.8,3832.4c-5.5,0-9.9-4.4-9.9-9.9s4.4-9.9,9.9-9.9c48.6,0,88.1-56,88.1-124.9c0-5.5,4.4-9.9,9.9-9.9
								s9.9,4.4,9.9,9.9c0,38.1-10.9,74.1-30.6,101.2C729.7,3817,702.2,3832.4,672.8,3832.4z"/>
							<path class="st6" d="M655.3,3904.9c-34.8,0-67.1-20.5-91.1-57.8c-23.1-35.9-35.8-83.5-35.8-134c0-5.5,4.4-9.9,9.9-9.9
								s9.9,4.4,9.9,9.9c0,46.8,11.6,90.5,32.7,123.3c20.2,31.4,46.6,48.7,74.4,48.7c5.5-0.2,10.1,4.1,10.2,9.6
								c0.2,5.5-4.1,10.1-9.6,10.2C655.7,3904.9,655.5,3904.9,655.3,3904.9z"/>
							<path class="st6" d="M652.9,4149.9c-26.2,0-50.3-16.4-68.1-46.1c-16.8-28.1-26.1-65.3-26.1-104.8c0-5.5,4.4-9.9,9.9-9.9
								s9.9,4.4,9.9,9.9c0,35.9,8.3,69.5,23.3,94.6c14,23.5,32.2,36.4,51.1,36.4c5.5,0,9.9,4.4,9.9,9.9S658.4,4149.9,652.9,4149.9z"
								/>
							
								<linearGradient id="tree_crowns-2_1_" gradientUnits="userSpaceOnUse" x1="408.2219" y1="739.7" x2="408.2219" y2="1059.22" gradientTransform="matrix(1 0 0 -1 0 4400)">
								<stop  offset="0" style="stop-color:#7C5AC9"/>
								<stop  offset="0.49" style="stop-color:#6F85E2"/>
								<stop  offset="1" style="stop-color:#61B7FF"/>
							</linearGradient>
							<path id="tree_crowns-2" class="st7" d="M737.5,3395.8c-34.8-0.1-68.8,10.4-97.6,30c-45-57.5-128.1-67.5-185.6-22.5
								c-4.5,3.5-8.7,7.3-12.7,11.3c-28.2-42.2-85.3-53.5-127.5-25.3c-12.3,8.2-22.4,19.3-29.5,32.3
								c-41.8-31.4-97.9-36.1-144.4-12.1c-26.4-31.9-73.7-36.4-105.6-10c-2.5,2.1-4.9,4.4-7.2,6.8c-53.9-12.1-107.4,21.8-119.5,75.7
								s21.8,107.4,75.7,119.5c7.1,1.6,14.4,2.4,21.7,2.4c25.7,0,50.4-9.8,68.9-27.6c3,8.3,6.7,16.3,11.2,23.9
								c-15.2,20-11.4,48.5,8.6,63.8c18.7,14.3,45.2,11.9,61.1-5.5c34.3,12.7,72.2,11.2,105.4-4.3c0.3,32.7,27,59,59.7,58.7
								s59-27,58.7-59.7c-0.3-31.1-24.7-56.7-55.7-58.6c6.9-12.9,11.6-26.8,14-41.3c24.9,7.9,51.9,4.9,74.4-8.2
								c14.7,43.3,52.1,76.4,98.3,85.5c-24.7,37-14.8,87,22.2,111.7c37,24.7,87,14.8,111.7-22.2c0.7-1.1,1.4-2.2,2.1-3.3
								c81.4,50.5,188.4,25.5,238.9-55.9c50.5-81.4,25.5-188.4-55.9-238.9C801.4,3404.8,769.8,3395.8,737.5,3395.8z"/>
						</g>
						<g id="stones">
							<ellipse class="st8" cx="277.5" cy="4786.8" rx="33" ry="7.5"/>
							<ellipse class="st8" cx="315" cy="4819" rx="16.5" ry="5.3"/>
							<ellipse class="st8" cx="243.7" cy="4756" rx="18.8" ry="5.3"/>
							<ellipse class="st8" cx="457.5" cy="4795" rx="31.5" ry="8.3"/>
							<ellipse class="st8" cx="249.7" cy="4810" rx="23.3" ry="5.3"/>
							<ellipse class="st8" cx="555.7" cy="4801.7" rx="18.8" ry="4.5"/>
							<ellipse class="st8" cx="507" cy="4822" rx="16.5" ry="5.3"/>
							<ellipse class="st8" cx="674.2" cy="4804.7" rx="30.8" ry="7.5"/>
							<ellipse class="st8" cx="630.7" cy="4834" rx="18.8" ry="3.8"/>
							<ellipse class="st8" cx="102" cy="4757.5" rx="25.5" ry="6.8"/>
							<ellipse class="st8" cx="138.7" cy="4799.5" rx="18.8" ry="5.3"/>
							<ellipse class="st8" cx="92.2" cy="4817.5" rx="15.8" ry="3.8"/>
							<ellipse class="st8" cx="375" cy="4867.7" rx="15" ry="4.5"/>
							<ellipse class="st8" cx="395.2" cy="4885" rx="12.8" ry="5.3"/>
							<ellipse class="st8" cx="510.7" cy="4878.2" rx="15.8" ry="4.5"/>
							<ellipse class="st8" cx="684.7" cy="4856.5" rx="15.8" ry="3.8"/>
							<ellipse class="st8" cx="172.5" cy="4885.7" rx="21" ry="4.5"/>
							<ellipse class="st8" cx="156.7" cy="4861" rx="15.8" ry="5.3"/>
							<ellipse class="st8" cx="682.4" cy="4897" rx="16.5" ry="3.8"/>
						</g>
					</g>
				</g>
			</g>
		</g>
		<g id="Clouds_Mountains">
			<g>
				<defs>
					<rect id="SVGID_3_" y="1273.9" width="800" height="2173.1"/>
				</defs>
				<clipPath id="SVGID_4_">
					<use xlink:href="#SVGID_3_"  style="overflow:visible;"/>
				</clipPath>
				<g class="st9">
					<path class="st10" d="M-371.8,2505.5c37.1-384.2,427-754.7,937.1-864.2c487-104.5,925.3,62.8,1072.7,382.3
						c12.8-80.4,11-160.8-7.4-238.6c-97.9-414.9-628.6-600.5-1185.2-414.6s-928.5,672.9-830.5,1087.8
						C-381.3,2474.3-376.9,2490.1-371.8,2505.5z"/>
					<g class="st11">
						<path class="st12" d="M1593,1943.5c-179.2-266.5-583.2-397.7-1027.7-302.2C95.9,1742.1-271.8,2063.9-356.3,2414
							c136.1-303.5,496.1-547.4,931.4-596.5c491.4-55.5,919.3,155.3,1048.4,488.6c17.3-78.9,19.9-159.2,5.9-238.7
							C1621.9,2024.9,1609.7,1983.3,1593,1943.5z"/>
					</g>
					<path class="st13" d="M262.8,1663.8v-2.3c0-6.6,5.3-11.9,11.9-11.9h46c6.6,0,11.9-5.3,11.9-11.9v-2.8c0-6.6-5.3-11.9-11.9-11.9
						h-136c-6.6,0-11.9,5.3-11.9,11.9v2.8c0,6.6,5.3,11.9,11.9,11.9h24.2c6.6,0,11.9,5.3,11.9,11.9v2.3c0,6.6-5.3,11.9-11.9,11.9
						h-61c-6.6,0-11.9,5.3-11.9,11.9l0,0c0,6.6,5.3,11.9,11.9,11.9h209.7c6.6,0,11.9-5.3,11.9-11.9l0,0c0-6.6-5.3-11.9-11.9-11.9
						h-82.9C268.1,1675.7,262.8,1670.4,262.8,1663.8L262.8,1663.8z"/>
					<path class="st13" d="M559.9,1473.5L559.9,1473.5c0-5.5-4.5-10-10-10h-14.4c-5.6,0-10.2-4.6-10.2-10.2c0,0,0,0,0,0l0,0
						c0-5.6,4.6-10.2,10.2-10.2c0,0,0,0,0,0h83.4c5.6,0,10.2,4.6,10.2,10.2c0,0,0,0,0,0l0,0c0,5.6-4.6,10.2-10.2,10.2c0,0,0,0,0,0
						h-16.6c-5.5,0-10,4.5-10,10l0,0c0,5.5,4.5,10,10,10h39c5,0,9.1,4.1,9.1,9.1l0,0c0,5-4.1,9.1-9.1,9.1H487c-5,0-9.1-4.1-9.1-9.1
						l0,0c0-5,4.1-9.1,9.1-9.1h62.8C555.4,1483.5,559.9,1479.1,559.9,1473.5C559.9,1473.5,559.9,1473.5,559.9,1473.5z"/>
					<path class="st13" d="M665.3,1604.3v-3.4c0-6.2,5.1-11.3,11.3-11.3h47.1c6.2,0,11.3-5.1,11.3-11.3v-3.9
						c0-6.2-5.1-11.3-11.3-11.3H586.6c-6.2,0-11.3,5.1-11.3,11.3v3.9c0,6.2,5.1,11.3,11.3,11.3h25.3c6.2,0,11.3,5.1,11.3,11.3v3.4
						c0,6.2-5.1,11.3-11.3,11.3h-62.1c-6.2,0-11.3,5.1-11.3,11.3v1.1c0,6.2,5.1,11.3,11.3,11.3h126.9c6.2,0,11.3-5,11.3-11.3
						c0,0,0,0,0-0.1v-1.1c0-6.2-5.1-11.3-11.3-11.3l0,0C670.4,1615.6,665.4,1610.6,665.3,1604.3
						C665.3,1604.3,665.3,1604.3,665.3,1604.3z"/>
					<path class="st13" d="M188.2,1346.2v-3.4c0-6.2-5.1-11.3-11.3-11.3h-47.1c-6.2,0-11.3-5.1-11.3-11.3v-3.9
						c0-6.2,5.1-11.3,11.3-11.3h137.2c6.2,0,11.3,5.1,11.3,11.3v3.9c0,6.2-5.1,11.3-11.3,11.3h-25.3c-6.2,0-11.3,5.1-11.3,11.3v3.4
						c0,6.2,5.1,11.3,11.3,11.3h62.1c6.2,0,11.3,5.1,11.3,11.3v1.1c0,6.2-5.1,11.3-11.3,11.3H176.9c-6.2,0-11.3-5.1-11.3-11.3v-1.1
						c0-6.2,5.1-11.3,11.3-11.3l0,0C183.1,1357.5,188.2,1352.5,188.2,1346.2z"/>
					<path class="st13" d="M175.8,1973.2v-2.3c0-6.5,5.3-11.8,11.9-11.8h2.3c6.6,0,11.9-5.3,11.9-11.9v-2.8
						c0-6.6-5.3-11.9-11.9-11.9h-38.3c-6.6,0-11.9,5.3-11.9,11.9v2.8c0,6.6-5.3,11.9-11.9,11.9H95.6c-6.6,0-11.9,5.3-11.9,11.9v2.3
						c0,6.5,5.3,11.8,11.9,11.8h32.3c6.6,0,11.9,5.3,11.9,11.9l0,0c0,6.6,5.3,11.9,11.9,11.9h94.3c6.6,0,11.9-5.3,11.9-11.9l0,0
						c0-6.6-5.3-11.9-11.9-11.9h-58.3C181.1,1985,175.8,1979.7,175.8,1973.2z"/>
					
						<linearGradient id="SVGID_5_" gradientUnits="userSpaceOnUse" x1="139.89" y1="1756.71" x2="139.89" y2="1023.29" gradientTransform="matrix(1 0 0 -1 0 4400)">
						<stop  offset="0" style="stop-color:#4951A3"/>
						<stop  offset="0.34" style="stop-color:#5573CE"/>
						<stop  offset="0.69" style="stop-color:#639AFF"/>
						<stop  offset="1" style="stop-color:#8CCBFF;stop-opacity:0"/>
					</linearGradient>
					<path class="st14" d="M139.9,2632.8L139.9,2632.8c26.4,0,47.8,21.4,47.8,47.8v708.3l0,0H92.1l0,0v-708.3
						C92.1,2654.2,113.5,2632.8,139.9,2632.8L139.9,2632.8L139.9,2632.8z"/>
					
						<linearGradient id="SVGID_6_" gradientUnits="userSpaceOnUse" x1="275.9" y1="1656.1299" x2="275.9" y2="1021.6499" gradientTransform="matrix(1 0 0 -1 0 4400)">
						<stop  offset="0" style="stop-color:#4951A3"/>
						<stop  offset="0.34" style="stop-color:#5573CE"/>
						<stop  offset="0.69" style="stop-color:#639AFF"/>
						<stop  offset="1" style="stop-color:#8CCBFF;stop-opacity:0"/>
					</linearGradient>
					<path class="st15" d="M275.9,2734.8L275.9,2734.8c26.4,0,47.8,21.4,47.8,47.8l0,0v606.3l0,0h-95.5l0,0v-606.3
						C228.1,2756.2,249.5,2734.8,275.9,2734.8L275.9,2734.8z"/>
					
						<linearGradient id="SVGID_7_" gradientUnits="userSpaceOnUse" x1="522.79" y1="1701.98" x2="522.79" y2="1022.3999" gradientTransform="matrix(1 0 0 -1 0 4400)">
						<stop  offset="0" style="stop-color:#515AB5"/>
						<stop  offset="0.33" style="stop-color:#6385D7"/>
						<stop  offset="0.68" style="stop-color:#78B9FF"/>
						<stop  offset="1" style="stop-color:#8CCBFF;stop-opacity:0"/>
					</linearGradient>
					<path class="st16" d="M522.8,2688.3L522.8,2688.3c26.3,0,47.7,21.3,47.7,47.7c0,0,0,0,0,0v652.9l0,0h-95.3l0,0V2736
						C475.1,2709.7,496.4,2688.3,522.8,2688.3C522.8,2688.3,522.8,2688.3,522.8,2688.3z"/>
					
						<linearGradient id="SVGID_8_" gradientUnits="userSpaceOnUse" x1="618.11" y1="1615.3201" x2="618.11" y2="1020.99" gradientTransform="matrix(1 0 0 -1 0 4400)">
						<stop  offset="0" style="stop-color:#515AB5"/>
						<stop  offset="0.33" style="stop-color:#6385D7"/>
						<stop  offset="0.68" style="stop-color:#78B9FF"/>
						<stop  offset="1" style="stop-color:#8CCBFF;stop-opacity:0"/>
					</linearGradient>
					<path class="st17" d="M618.1,2776.2L618.1,2776.2c26.3,0,47.7,21.3,47.7,47.7v565l0,0h-95.3l0,0v-565
						C570.5,2797.5,591.8,2776.2,618.1,2776.2z"/>
					
						<linearGradient id="SVGID_9_" gradientUnits="userSpaceOnUse" x1="576.91" y1="1419.52" x2="576.91" y2="1021.78" gradientTransform="matrix(1 0 0 -1 0 4400)">
						<stop  offset="0" style="stop-color:#4951A3"/>
						<stop  offset="9.000000e-02" style="stop-color:#4C5AAE"/>
						<stop  offset="0.25" style="stop-color:#5471CB"/>
						<stop  offset="0.46" style="stop-color:#6297FB"/>
						<stop  offset="0.48" style="stop-color:#639AFF"/>
						<stop  offset="1" style="stop-color:#8CCBFF;stop-opacity:0"/>
					</linearGradient>
					<path class="st18" d="M576.7,2974.8h0.5c26.1,0,47.3,21.2,47.3,47.3l0,0v362.7l0,0h-95l0,0v-362.7
						C529.4,2996,550.6,2974.8,576.7,2974.8C576.7,2974.8,576.7,2974.8,576.7,2974.8L576.7,2974.8z"/>
					
						<linearGradient id="SVGID_10_" gradientUnits="userSpaceOnUse" x1="754.32" y1="1777.98" x2="754.32" y2="1023.6299" gradientTransform="matrix(1 0 0 -1 0 4400)">
						<stop  offset="0" style="stop-color:#515AB5"/>
						<stop  offset="0.33" style="stop-color:#6385D7"/>
						<stop  offset="0.68" style="stop-color:#78B9FF"/>
						<stop  offset="1" style="stop-color:#8CCBFF;stop-opacity:0"/>
					</linearGradient>
					<path class="st19" d="M754.3,2611.3L754.3,2611.3c26.3,0,47.7,21.3,47.7,47.6c0,0,0,0,0,0v729.9l0,0h-95.4l0,0v-729.9
						C706.6,2632.6,728,2611.3,754.3,2611.3L754.3,2611.3z"/>
					
						<linearGradient id="SVGID_11_" gradientUnits="userSpaceOnUse" x1="44.375" y1="1570.3401" x2="44.375" y2="1020.25" gradientTransform="matrix(1 0 0 -1 0 4400)">
						<stop  offset="0" style="stop-color:#4951A3"/>
						<stop  offset="0.29" style="stop-color:#5573CE"/>
						<stop  offset="0.58" style="stop-color:#639AFF"/>
						<stop  offset="1" style="stop-color:#8CCBFF;stop-opacity:0"/>
					</linearGradient>
					<path class="st20" d="M44.4,2821.8L44.4,2821.8c26.4,0,47.8,21.4,47.8,47.8l0,0v519.3l0,0H-3.4l0,0v-519.3
						C-3.4,2843.2,18,2821.8,44.4,2821.8C44.4,2821.8,44.4,2821.8,44.4,2821.8L44.4,2821.8z"/>
					
						<linearGradient id="SVGID_12_" gradientUnits="userSpaceOnUse" x1="216.185" y1="1494.76" x2="216.185" y2="1020.3401" gradientTransform="matrix(1 0 0 -1 0 4400)">
						<stop  offset="0" style="stop-color:#4951A3"/>
						<stop  offset="2.000000e-02" style="stop-color:#4A55A8"/>
						<stop  offset="0.28" style="stop-color:#587AD7"/>
						<stop  offset="0.47" style="stop-color:#6091F4"/>
						<stop  offset="0.58" style="stop-color:#639AFF"/>
						<stop  offset="1" style="stop-color:#8CCBFF;stop-opacity:0"/>
					</linearGradient>
					<path class="st21" d="M216.2,2898.5L216.2,2898.5c26.4,0,47.8,21.4,47.8,47.8l0,0v441.3l0,0h-95.5l0,0v-441.3
						C168.4,2919.9,189.8,2898.5,216.2,2898.5z"/>
					<path class="st22" d="M239.9,2198.2c0.5-1.6,0.7-3.3,0.7-4.9c0.1-9.1-7.1-16.5-16.1-16.7c0,0,0,0,0,0c-2.2,0-4.4,0.5-6.4,1.3
						c-3.2-6.5-9.8-10.6-17-10.6c-1.8,0-3.6,0.3-5.4,0.8c-4.5-9.5-14-15.5-24.5-15.6c-13.8,0-25.2,10.5-27.2,24.1
						c-0.5,0-1-0.1-1.5-0.1c-9.1,0.1-16.3,7.6-16.2,16.6c0,0,0,0,0,0c0,1.7,0.2,3.3,0.7,4.9L239.9,2198.2L239.9,2198.2z"/>
					<path class="st22" d="M219.1,2136.2c-0.3-1.3-0.5-2.7-0.5-4.1c0-7.6,5-13.7,11.2-13.7c1.5,0,3,0.4,4.4,1.1
						c2.2-5.2,6.6-8.7,11.7-8.7c1.3,0,2.5,0.2,3.7,0.7c3.1-7.6,9.5-12.9,17-12.9c9.5,0,17.4,8.6,18.8,19.9c0.4,0,0.7-0.1,1.1-0.1
						c6.2,0,11.2,6.2,11.2,13.7c0,1.4-0.2,2.7-0.5,4.1L219.1,2136.2L219.1,2136.2z"/>
					<path class="st22" d="M641.1,2008.2c-0.3-1.3-0.5-2.7-0.5-4.1c0-7.6,5-13.7,11.2-13.7c1.5,0,3,0.4,4.4,1.1
						c2.2-5.2,6.6-8.7,11.7-8.7c1.3,0,2.5,0.2,3.7,0.7c3.1-7.6,9.5-12.9,17-12.9c9.5,0,17.4,8.6,18.8,19.9c0.4,0,0.7-0.1,1.1-0.1
						c6.2,0,11.2,6.2,11.2,13.7c0,1.4-0.2,2.7-0.5,4.1L641.1,2008.2L641.1,2008.2z"/>
					<path class="st23" d="M153.6,2481.9c-5.1-16.6,4.1-34.2,20.7-39.3c7.1-2.2,14.8-1.8,21.7,1.1c8.2-15.7,26.4-23.5,43.4-18.5
						c13.3-26.4,45.4-37,71.8-23.8c15.5,7.8,26.3,22.7,28.9,39.9c1-0.1,2-0.1,3-0.1c17.4,0,31.4,14.1,31.4,31.5
						c0,3.1-0.5,6.3-1.4,9.3L153.6,2481.9L153.6,2481.9z"/>
					<path class="st23" d="M206.8,2396.6c3.6-11.5-2.9-23.7-14.4-27.3c-5-1.5-10.3-1.3-15,0.8c-5.7-10.9-18.3-16.3-30.2-12.8
						c-9.2-18.3-31.5-25.7-49.9-16.5c-10.8,5.4-18.2,15.7-20,27.7c-0.7-0.1-1.4-0.1-2.1-0.1c-12.1,0-21.8,9.8-21.8,21.9
						c0,2.2,0.3,4.4,1,6.4L206.8,2396.6L206.8,2396.6z"/>
					<path class="st23" d="M549.9,2552.1c-0.8-3-1.3-6.1-1.3-9.3c0-17.3,12.5-31.3,28-31.3c3.8,0,7.6,0.9,11,2.5
						c5.5-11.8,16.6-19.9,29.4-19.9c3.2,0,6.3,0.5,9.3,1.5c7.8-17.4,23.9-29.3,42.5-29.3c23.9,0,43.6,19.7,47,45.4
						c0.9-0.1,1.8-0.1,2.7-0.1c15.4,0,28,14,28,31.3c0,3.1-0.4,6.3-1.3,9.3H549.9z"/>
					<path class="st23" d="M723.1,2323.5c3.7-12-3-24.7-15-28.4c-5.2-1.6-10.7-1.3-15.7,0.8c-5.9-11.4-19.1-17-31.4-13.4
						c-9.6-19.1-32.8-26.8-51.9-17.2c-11.2,5.6-19,16.4-20.9,28.8c-0.7-0.1-1.4-0.1-2.2-0.1c-12.6,0-22.7,10.2-22.7,22.7
						c0,2.3,0.3,4.5,1,6.7H723.1z"/>
					<path class="st23" d="M135.3,3113.2c-4.3-13.7,3.4-28.3,17.2-32.6c5.9-1.8,12.3-1.5,18,0.9c6.8-13.1,21.9-19.5,36-15.3
						c11-21.9,37.6-30.7,59.5-19.8c12.9,6.5,21.9,18.8,24,33.1c0.8-0.1,1.6-0.1,2.5-0.1c14.4,0,26.1,11.7,26.1,26.1
						c0,2.6-0.4,5.2-1.2,7.7L135.3,3113.2L135.3,3113.2z"/>
					<path class="st23" d="M645,2723.1c-3-9.5,2.4-19.6,11.8-22.5c4.1-1.3,8.5-1,12.5,0.7c4.7-9,15.1-13.5,24.9-10.6
						c7.6-15.1,26-21.2,41.1-13.6c8.9,4.5,15,13,16.5,22.8c0.6-0.1,1.1-0.1,1.7-0.1c9.9,0,18,8.1,18,18c0,1.8-0.3,3.6-0.8,5.3
						L645,2723.1L645,2723.1z"/>
					<path class="st23" d="M172.6,3030.7c0.4-1.6,0.6-3.2,0.6-4.8c0-9-6.4-16.3-14.3-16.3c-1.9,0-3.9,0.5-5.6,1.3
						c-2.8-6.2-8.5-10.4-15-10.4c-1.6,0-3.2,0.3-4.7,0.8c-4-9-12.2-15.3-21.7-15.3c-12.2,0-22.2,10.3-24,23.6
						c-0.5-0.1-0.9-0.1-1.4-0.1c-7.9,0-14.3,7.3-14.3,16.3c0,1.6,0.2,3.3,0.6,4.8L172.6,3030.7L172.6,3030.7z"/>
					<path class="st23" d="M634.6,2883.7c0.4-1.6,0.6-3.2,0.6-4.8c0-9-6.4-16.3-14.3-16.3c-1.9,0-3.9,0.5-5.6,1.3
						c-2.8-6.2-8.5-10.4-15-10.4c-1.6,0-3.2,0.3-4.7,0.8c-4-9-12.2-15.3-21.7-15.3c-12.2,0-22.2,10.3-24,23.6
						c-0.5-0.1-0.9-0.1-1.4-0.1c-7.9,0-14.3,7.3-14.3,16.3c0,1.6,0.2,3.3,0.6,4.8L634.6,2883.7L634.6,2883.7z"/>
				</g>
			</g>
		</g>
		<g id="Planets">
			<rect x="-1" y="665.2" class="st24" width="800" height="669.7"/>
			<g>
				<ellipse class="st25" cx="235.6" cy="770.9" rx="65" ry="67.2"/>
				<g>
					<defs>
						<ellipse id="SVGID_13_" cx="649.2" cy="839.3" rx="182.5" ry="188.7"/>
					</defs>
					<clipPath id="SVGID_14_">
						<use xlink:href="#SVGID_13_"  style="overflow:visible;"/>
					</clipPath>
					<g class="st26">
						<ellipse class="st27" cx="649.2" cy="839.3" rx="182.5" ry="188.7"/>
						<path class="st28" d="M411.6,729.5L411.6,729.5c3.3,7.9,12.1,11.5,19.7,8c0,0,0,0,0,0L534.1,691c7.6-3.4,16.4,0.1,19.8,8
							c0,0,0,0,0,0l0,0c3.3,7.8-0.1,17-7.7,20.4c0,0,0,0,0,0l-50.7,22.9c-7.6,3.4-11,12.6-7.7,20.4c0,0,0,0,0,0l0,0
							c3.3,7.8,12.2,11.4,19.8,8c0,0,0,0,0,0l81.8-37.1c7.6-3.4,16.4,0.1,19.8,8c0,0,0,0,0,0l0,0c3.3,7.8-0.1,17-7.7,20.4
							c0,0,0,0,0,0L533.3,793c-7.6,3.4-11,12.6-7.7,20.4c0,0,0,0,0,0l0,0c3.4,7.8,12.2,11.4,19.8,7.9l24.7-11.2
							c7.6-3.4,16.4,0.1,19.8,8c0,0,0,0,0,0l0,0c3.3,7.8-0.1,17-7.7,20.4c0,0,0,0,0,0l-79.3,36c-7.6,3.4-11,12.6-7.7,20.4l0,0
							c3.3,7.9,12.1,11.4,19.7,8l33.6-15.2c7.6-3.4,16.4,0.1,19.8,8c0,0,0,0,0,0l0,0c3.3,7.8-0.1,17-7.7,20.4c0,0,0,0,0,0l-4,1.8
							c-7.6,3.4-11,12.6-7.7,20.4c0,0,0,0,0,0l0,0c3.3,7.8,12.2,11.4,19.8,8c0,0,0,0,0,0l86.1-39c7.6-3.4,16.4,0.1,19.8,8
							c0,0,0,0,0,0l0,0c3.3,7.8-0.1,17-7.7,20.4c0,0,0,0,0,0l-66.3,30c-7.6,3.4-11,12.6-7.7,20.4c0,0,0,0,0,0l0,0
							c3.3,7.8,12.2,11.4,19.8,8c0,0,0,0,0,0l47-21.3c7.6-3.4,16.4,0.1,19.8,8c0,0,0,0,0,0l0,0c3.3,7.8-0.1,17-7.7,20.4c0,0,0,0,0,0
							l-46.4,21c-7.6,3.4-11,12.6-7.7,20.4c0,0,0,0,0,0l0,0c3.3,7.8,12.2,11.4,19.8,8c0,0,0,0,0,0l61-27.6c7.6-3.4,16.4,0.1,19.8,8
							c0,0,0,0,0,0l0,0c3.3,7.8-0.1,17-7.7,20.4c0,0,0,0,0,0l-81,36.7c-7.6,3.4-11,12.6-7.7,20.4c0,0,0,0,0,0l0,0
							c3.3,7.8,12.1,11.4,19.7,8l343.7-155.8c7.6-3.4,11-12.6,7.7-20.4c0,0,0,0,0,0L823.8,542.7c-3.3-7.8-12.2-11.4-19.8-8
							c0,0,0,0,0,0L419.3,709.1C411.8,712.5,408.3,721.7,411.6,729.5z"/>
						<path class="st29" d="M467.5,704.2L467.5,704.2c3.3,7.8,12.2,11.4,19.8,8c0,0,0,0,0,0l175.3-79.5c7.6-3.4,16.4,0.1,19.8,8
							c0,0,0,0,0,0l0,0c3.3,7.8-0.1,17-7.7,20.4c0,0,0,0,0,0l-117.5,53.3c-7.6,3.4-11,12.6-7.7,20.4c0,0,0,0,0,0l0,0
							c3.3,7.8,12.2,11.4,19.8,8c0,0,0,0,0,0l57.7-26.1c7.6-3.4,16.4,0.1,19.8,8c0,0,0,0,0,0l0,0c3.3,7.8-0.1,17-7.7,20.4
							c0,0,0,0,0,0l-85.2,38.6c-7.6,3.4-11,12.6-7.7,20.4l0,0c3.3,7.8,12.2,11.4,19.8,8c0,0,0,0,0,0l80.9-36.7
							c7.6-3.4,16.4,0.1,19.8,8c0,0,0,0,0,0l0,0c3.3,7.8-0.1,17-7.7,20.4c0,0,0,0,0,0l-100.1,45.4c-7.6,3.4-11,12.6-7.7,20.4
							c0,0,0,0,0,0l0,0c3.3,7.8,12.2,11.4,19.8,8c0,0,0,0,0,0l46.4-21c7.6-3.4,16.4,0.1,19.8,8c0,0,0,0,0,0l0,0
							c3.3,7.8-0.1,17-7.7,20.4c0,0,0,0,0,0l-16.5,7.5c-7.6,3.4-11,12.6-7.7,20.4c0,0,0,0,0,0l0,0c3.3,7.8,12.2,11.4,19.8,8
							c0,0,0,0,0,0l73.9-33.5c7.6-3.4,16.4,0.1,19.8,8c0,0,0,0,0,0l0,0c3.3,7.8-0.1,17-7.7,20.4c0,0,0,0,0,0L683.6,928
							c-7.6,3.5-11,12.6-7.6,20.4l0,0c3.3,7.8,12.2,11.4,19.8,8c0,0,0,0,0,0l62.9-28.5c7.6-3.4,16.4,0.1,19.8,8c0,0,0,0,0,0l0,0
							c3.3,7.8-0.1,17-7.7,20.4c0,0,0,0,0,0L680.9,997c-7.6,3.4-11,12.6-7.7,20.4c0,0,0,0,0,0l0,0c3.3,7.8,12.2,11.4,19.8,8
							c0,0,0,0,0,0l61-27.6c7.6-3.4,16.4,0.1,19.8,8c0,0,0,0,0,0l0,0c3.3,7.8-0.1,17-7.7,20.4c0,0,0,0,0,0l-81.1,36.7
							c-7.6,3.4-11,12.6-7.7,20.4c0,0,0,0,0,0l0,0c3.3,7.8,12.2,11.4,19.8,8c0,0,0,0,0,0l343.6-155.7c7.6-3.4,11-12.6,7.7-20.4
							c0,0,0,0,0,0L879.7,517.4c-3.3-7.8-12.2-11.4-19.8-8c0,0,0,0,0,0L475.2,683.8C467.6,687.2,464.2,696.4,467.5,704.2z"/>
						<path class="st30" d="M511.8,684.1L511.8,684.1c3.3,7.8,12.2,11.4,19.8,8c0,0,0,0,0,0l123.2-55.8c7.6-3.4,16.4,0.1,19.8,8
							c0,0,0,0,0,0l0,0c3.3,7.8-0.1,17-7.7,20.4c0,0,0,0,0,0l-75.4,34.2c-7.6,3.4-11,12.6-7.7,20.4c0,0,0,0,0,0l0,0
							c3.3,7.8,12.2,11.4,19.8,8c0,0,0,0,0,0l99.2-45c7.6-3.4,16.4,0.1,19.8,8c0,0,0,0,0,0l0,0c3.3,7.8-0.1,17-7.7,20.4c0,0,0,0,0,0
							l-69.9,31.7c-7.6,3.4-11,12.6-7.7,20.4l0,0c3.3,7.8,12.2,11.4,19.8,8c0,0,0,0,0,0l32.3-14.7c7.6-3.4,16.4,0.1,19.8,8
							c0,0,0,0,0,0l0,0c3.3,7.8-0.1,17-7.7,20.4c0,0,0,0,0,0l-47.6,21.6c-7.6,3.4-11,12.6-7.7,20.4c0,0,0,0,0,0l0,0
							c3.3,7.8,12.2,11.4,19.8,8c0,0,0,0,0,0l60.3-27.3c7.6-3.4,16.4,0.1,19.8,8c0,0,0,0,0,0l0,0c3.3,7.8-0.1,17-7.7,20.4
							c0,0,0,0,0,0l-95.1,43.1c-7.6,3.4-11,12.6-7.7,20.4c0,0,0,0,0,0l0,0c3.3,7.8,12.2,11.4,19.8,8c0,0,0,0,0,0L772,854.1
							c7.6-3.4,16.4,0.1,19.8,8c0,0,0,0,0,0l0,0c3.3,7.8-0.1,17-7.7,20.4c0,0,0,0,0,0l-35.3,16c-7.6,3.4-11,12.6-7.7,20.4l0,0
							c3.3,7.8,12.2,11.4,19.8,8c0,0,0,0,0,0l23.2-10.5c7.6-3.4,16.4,0.1,19.8,8c0,0,0,0,0,0l0,0c3.3,7.9-0.2,17-7.8,20.4
							l-70.8,32.1c-7.6,3.4-11,12.6-7.7,20.4c0,0,0,0,0,0l0,0c3.3,7.9,12.1,11.5,19.7,8.1c0,0,0,0,0,0l61-27.6
							c7.6-3.4,16.4,0.1,19.7,8l0,0c3.3,7.8-0.1,17-7.7,20.4c0,0,0,0,0,0l-81.1,36.7c-7.6,3.4-11,12.6-7.7,20.4c0,0,0,0,0,0l0,0
							c3.3,7.8,12.2,11.4,19.8,8c0,0,0,0,0,0l343.7-155.7c7.6-3.4,11-12.6,7.7-20.4c0,0,0,0,0,0L923.9,497.4
							c-3.3-7.8-12.2-11.4-19.8-8c0,0,0,0,0,0L519.5,663.7C511.9,667.1,508.4,676.3,511.8,684.1
							C511.8,684.1,511.8,684.1,511.8,684.1z"/>
					</g>
				</g>
				<g>
					<defs>
						<ellipse id="SVGID_15_" cx="678.7" cy="1022.2" rx="65" ry="67.2"/>
					</defs>
					<clipPath id="SVGID_16_">
						<use xlink:href="#SVGID_15_"  style="overflow:visible;"/>
					</clipPath>
					<g class="st31">
						<ellipse class="st25" cx="678.7" cy="1022.2" rx="65" ry="67.2"/>
						<ellipse class="st25" cx="678.7" cy="1022.2" rx="65" ry="67.2"/>
						<path class="st32" d="M702.3,993.4c0,0,0.5,0.1,1.4,0.2s2.2,0.4,3.7,0.8c3.7,1,7.3,2.2,10.8,3.6c3.5,1.4,7,3,10.4,4.8
							c1.4,0.7,2.5,1.4,3.3,1.9s1.2,0.8,1.2,0.8s-0.5-0.1-1.4-0.2s-2.2-0.4-3.7-0.8c-3.7-1-7.3-2.2-10.8-3.6c-3.5-1.4-7-3-10.4-4.8
							c-1.4-0.7-2.5-1.4-3.3-1.9S702.3,993.4,702.3,993.4z"/>
						<path class="st32" d="M612.4,1000.2c0,0,0.5,0.1,1.4,0.2s2.2,0.4,3.7,0.8c3.7,1,7.3,2.2,10.8,3.6c3.5,1.4,7,3,10.4,4.8
							c1.4,0.7,2.5,1.4,3.3,1.9c0.8,0.5,1.2,0.8,1.2,0.8s-0.5-0.1-1.4-0.2s-2.2-0.4-3.7-0.8c-3.7-1-7.3-2.2-10.8-3.6
							c-3.5-1.4-7-3-10.4-4.8c-1.4-0.7-2.5-1.4-3.3-1.9S612.4,1000.2,612.4,1000.2z"/>
						<path class="st32" d="M687.2,1013.7c0,0,0.4,0,1,0.1c0.6,0.1,1.5,0.2,2.5,0.4c2.5,0.5,4.9,1.3,7.3,2.2
							c2.4,0.9,4.7,2.1,6.8,3.4c0.9,0.6,1.6,1.1,2.1,1.5c0.5,0.4,0.8,0.6,0.8,0.6s-0.4,0-1-0.1c-0.6-0.1-1.5-0.2-2.5-0.4
							c-2.5-0.5-4.9-1.2-7.3-2.2c-2.4-0.9-4.7-2.1-6.8-3.4c-0.9-0.6-1.6-1.1-2.1-1.5C687.5,1013.9,687.2,1013.7,687.2,1013.7z"/>
						<path class="st32" d="M651.4,1053.7c0,0,0.5,0,1.2,0.2s1.9,0.3,3.2,0.6c3.1,0.8,6.2,1.7,9.2,3c3,1.2,5.9,2.6,8.8,4.2
							c1.2,0.7,2.1,1.3,2.8,1.7c0.7,0.4,1,0.7,1,0.7s-0.5,0-1.2-0.2c-0.8-0.2-1.9-0.3-3.2-0.6c-3.1-0.8-6.2-1.7-9.2-3
							c-3-1.2-5.9-2.6-8.8-4.2c-1.2-0.7-2.1-1.3-2.8-1.7S651.4,1053.7,651.4,1053.7z"/>
						<path class="st32" d="M650.9,985.1c0,0,3.8,1,9.3,2.8c1.4,0.4,2.9,0.9,4.5,1.5s3.2,1.1,5,1.7s3.5,1.3,5.3,2l5.4,2.1l5.4,2.2
							c1.8,0.7,3.5,1.5,5.2,2.2c3.3,1.4,6.4,2.9,9.1,4.1c5.3,2.5,8.7,4.4,8.7,4.4s-3.8-1-9.3-2.8c-2.8-0.9-6-2-9.4-3.2
							c-1.7-0.6-3.5-1.2-5.3-2l-5.4-2.1l-5.4-2.2c-1.8-0.7-3.5-1.5-5.2-2.2s-3.3-1.4-4.8-2.1s-3-1.4-4.3-2
							C654.3,987,650.9,985.1,650.9,985.1z"/>
						<path class="st32" d="M608.5,1027c0,0,3.8,1,9.3,2.8c1.4,0.4,2.9,0.9,4.5,1.5s3.2,1.1,5,1.7c1.7,0.6,3.5,1.3,5.3,2l5.4,2.1
							l5.4,2.2c1.8,0.7,3.5,1.5,5.2,2.2c3.3,1.4,6.4,2.9,9.1,4.1c5.3,2.5,8.7,4.4,8.7,4.4s-3.8-1-9.3-2.8c-2.8-0.9-6-2-9.4-3.2
							c-1.7-0.6-3.5-1.2-5.3-2l-5.4-2.1l-5.4-2.2c-1.8-0.7-3.5-1.5-5.2-2.2c-1.7-0.7-3.3-1.4-4.8-2.1c-1.5-0.7-3-1.4-4.3-2
							C612,1028.9,608.5,1027,608.5,1027z"/>
						<path class="st32" d="M678.8,1038.3c0,0,3.8,1,9.3,2.8c1.4,0.4,2.9,0.9,4.5,1.5s3.2,1.1,5,1.7c1.7,0.6,3.5,1.3,5.3,2l5.4,2.1
							l5.4,2.2c1.8,0.7,3.5,1.5,5.2,2.2c3.3,1.4,6.4,2.9,9.1,4.1c5.3,2.5,8.7,4.4,8.7,4.4s-3.8-1-9.3-2.8c-2.8-0.9-6-2-9.4-3.2
							c-1.7-0.6-3.5-1.3-5.3-2l-5.4-2.1l-5.4-2.2c-1.8-0.7-3.5-1.5-5.2-2.2c-1.7-0.7-3.3-1.4-4.8-2.1c-1.5-0.7-3-1.4-4.3-2
							C682.2,1040.2,678.8,1038.3,678.8,1038.3z"/>
						<path class="st32" d="M607.4,1055.9c0,0,3.8,1,9.3,2.8c1.4,0.4,2.9,0.9,4.5,1.5s3.2,1.1,5,1.7c1.7,0.6,3.5,1.3,5.3,2l5.4,2.1
							l5.4,2.2c1.8,0.7,3.5,1.5,5.2,2.2c3.3,1.4,6.4,2.9,9.1,4.1c5.3,2.5,8.7,4.4,8.7,4.4s-3.8-1-9.3-2.8c-2.8-0.9-6-2-9.4-3.2
							c-1.7-0.6-3.5-1.2-5.3-2l-5.4-2.1l-5.4-2.2c-1.8-0.7-3.5-1.5-5.2-2.2c-1.7-0.7-3.3-1.4-4.8-2.1s-3-1.4-4.3-2
							C610.8,1057.8,607.4,1055.9,607.4,1055.9z"/>
					</g>
				</g>
				<ellipse class="st33" cx="209.3" cy="974.4" rx="40" ry="41.4"/>
				
					<ellipse transform="matrix(6.964491e-02 -0.9976 0.9976 6.964491e-02 -748.641 1082.963)" class="st34" cx="206.3" cy="942.8" rx="3.7" ry="5.4"/>
				
					<ellipse transform="matrix(6.964489e-02 -0.9976 0.9976 6.964489e-02 -764.0258 1089.4166)" class="st34" cx="202" cy="954.3" rx="1.9" ry="2.7"/>
				
					<ellipse transform="matrix(6.961933e-02 -0.9976 0.9976 6.961933e-02 -758.6735 1131.3553)" class="st34" cx="227.2" cy="972.4" rx="3.9" ry="5.7"/>
				
					<ellipse transform="matrix(6.961093e-02 -0.9976 0.9976 6.961093e-02 -748.5541 1105.2657)" class="st34" cx="218.3" cy="953.9" rx="2.9" ry="4.3"/>
				
					<ellipse transform="matrix(6.962055e-02 -0.9976 0.9976 6.962055e-02 -788.2052 1126.9308)" class="st34" cx="210.1" cy="986" rx="4.1" ry="6"/>
				
					<ellipse transform="matrix(6.962485e-02 -0.9976 0.9976 6.962485e-02 -808.3691 1136.8245)" class="st34" cx="205.3" cy="1001.8" rx="2.5" ry="3.6"/>
				
					<ellipse transform="matrix(6.962040e-02 -0.9976 0.9976 6.962040e-02 -810.8105 1110.0685)" class="st34" cx="189.7" cy="989.7" rx="2" ry="3"/>
				
					<ellipse transform="matrix(6.959497e-02 -0.9976 0.9976 6.959497e-02 -788.7578 1078.959)" class="st34" cx="184" cy="962.3" rx="3" ry="4.4"/>
				
					<ellipse transform="matrix(6.967528e-02 -0.9976 0.9976 6.967528e-02 -793.7162 1094.0942)" class="st34" cx="189.7" cy="972.6" rx="1.7" ry="2.4"/>
				
					<ellipse transform="matrix(6.957927e-02 -0.9976 0.9976 6.957927e-02 -766.577 1145.5219)" class="st34" cx="230.8" cy="983.7" rx="1.5" ry="2.2"/>
				<g>
					<defs>
						<ellipse id="SVGID_17_" cx="138.2" cy="864.2" rx="110" ry="113.7"/>
					</defs>
					<clipPath id="SVGID_18_">
						<use xlink:href="#SVGID_17_"  style="overflow:visible;"/>
					</clipPath>
					<g class="st35">
						<ellipse class="st36" cx="138.2" cy="864.2" rx="110" ry="113.7"/>
						<polygon class="st37" points="-33,833.1 248.2,725 255.1,744.4 -26.1,852.4 						"/>
						<polygon class="st38" points="-26.1,852.4 255.1,744.4 262.1,763.8 -19.1,871.8 						"/>
						<polygon class="st39" points="-19.1,871.8 262.1,763.8 269.1,783.2 -12.1,891.2 						"/>
						<polygon class="st37" points="-5.2,910.6 276,802.6 283,822 1.8,930 						"/>
						<polygon class="st39" points="1.8,930 283,822 290,841.3 8.7,949.4 						"/>
						<polygon class="st37" points="8.7,949.4 290,841.3 296.9,860.7 15.7,968.8 						"/>
						<polygon class="st38" points="22.7,988.1 303.9,880.1 310.9,899.5 29.6,1007.5 						"/>
						<polygon class="st39" points="29.6,1007.5 310.9,899.5 317.8,918.9 36.6,1026.9 						"/>
					</g>
				</g>
				<path class="st40" d="M224.1,793.1c2.5,3.2,4.8,6.5,6.9,10c25.3-5.2,41.9-5.5,44,0.4c2.1,5.7-9.9,16.3-31.2,29
					c-23.9,14.2-59.6,31-100.3,46.7s-78.4,26.9-105.4,32.3c-24.1,4.8-39.8,4.9-41.9-0.8c-2.1-5.9,10.6-16.9,33.1-30
					c-0.6-4.1-1-8.1-1.1-12.2c-46.3,24.2-74.7,46.1-70.7,57.1c3.8,10.7,37.5,8.5,85.9-3.5c30.1-7.5,65.8-18.9,103.5-33.4
					s72-30,99.5-44.6c44.3-23.5,71.1-44.6,67.3-55.3C309.8,777.7,274.4,780.2,224.1,793.1z"/>
				<ellipse class="st39" cx="363.5" cy="727.4" rx="6.8" ry="7"/>
				<ellipse class="st39" cx="428.7" cy="969.3" rx="8.8" ry="9.1"/>
				<ellipse class="st39" cx="83" cy="1010.4" rx="4.5" ry="4.7"/>
				<ellipse class="st39" cx="87.5" cy="701" rx="3.8" ry="3.9"/>
				<ellipse class="st39" cx="577.9" cy="1041.5" rx="3" ry="3.1"/>
				<ellipse class="st39" cx="714.4" cy="1118.9" rx="6.8" ry="7"/>
				<ellipse class="st39" cx="765.4" cy="1026" rx="4.5" ry="4.7"/>
				<ellipse class="st39" cx="425" cy="1123.7" rx="8.3" ry="8.5"/>
				<ellipse class="st39" cx="88.9" cy="1209.8" rx="4.5" ry="4.7"/>
				<ellipse class="st39" cx="386" cy="735.2" rx="3.8" ry="3.9"/>
				<ellipse class="st39" cx="335" cy="761.5" rx="3.8" ry="3.9"/>
				<ellipse class="st39" cx="128" cy="723.5" rx="6.8" ry="7"/>
				<ellipse class="st39" cx="123.5" cy="1026" rx="7.5" ry="7.8"/>
				<ellipse class="st39" cx="58.2" cy="1104.3" rx="5.3" ry="5.4"/>
				<ellipse class="st39" cx="256.2" cy="1086.4" rx="5.3" ry="5.4"/>
				<ellipse class="st39" cx="301.2" cy="918.2" rx="3.8" ry="3.9"/>
				<ellipse class="st39" cx="378.5" cy="829.8" rx="3.8" ry="3.9"/>
				<ellipse class="st39" cx="456.4" cy="1138.5" rx="3.8" ry="3.9"/>
				<ellipse class="st39" cx="392" cy="1153.1" rx="3" ry="3.1"/>
				<ellipse class="st39" cx="584.7" cy="1073.3" rx="5.3" ry="5.4"/>
				<ellipse class="st39" cx="743.4" cy="1101.3" rx="3" ry="3.1"/>
				<ellipse class="st39" cx="556.9" cy="1229.1" rx="6" ry="6.2"/>
				<ellipse class="st39" cx="467" cy="728.2" rx="3" ry="3.1"/>
				<ellipse class="st39" cx="294.9" cy="1228.5" rx="4.5" ry="4.7"/>
				<ellipse class="st39" cx="189.2" cy="1281.4" rx="4.5" ry="4.7"/>
				<ellipse class="st39" cx="732.4" cy="1246" rx="8" ry="8.2"/>
				<ellipse class="st39" cx="744.4" cy="1302" rx="6.3" ry="6.5"/>
				<ellipse class="st39" cx="332" cy="1027.5" rx="5.5" ry="5.7"/>
				<ellipse class="st39" cx="458" cy="1019.8" rx="4.5" ry="4.7"/>
			</g>
		</g>
	</g>
	
		<image style="overflow:visible;" width="800" height="330" xlink:href="sofa.png"  transform="matrix(0.6326 0 0 0.6326 293.498 1181.7106)">
	</image>
	
		<image style="overflow:visible;" width="280" height="531" xlink:href="celu.png"  transform="matrix(0.481 0.1365 -0.1365 0.481 556.5566 3082.9404)">
	</image>
	
		<image style="overflow:visible;" width="512" height="512" xlink:href="../../../../../Downloads/9705049.png"  transform="matrix(0.2854 2.124341e-03 -2.124341e-03 0.2854 474.0239 1592.1721)">
	</image>
	
		<image style="overflow:visible;" width="512" height="512" xlink:href="../../../../../Downloads/7010860.png"  transform="matrix(0.2572 0 0 0.2572 571.7347 1660.7516)">
	</image>
	
		<image style="overflow:visible;" width="800" height="800" xlink:href="../../../../../Downloads/SP-Studio (9).png"  transform="matrix(0.2753 0 0 0.2753 398.4136 2507.5)">
	</image>
	
		<image style="overflow:visible;" width="800" height="800" xlink:href="../../../../../Downloads/SP-Studio (8).png"  transform="matrix(0.257 0 0 0.257 534.8004 2507.5)">
	</image>
	
		<image style="overflow:visible;" width="800" height="800" xlink:href="../../../../../Downloads/SP-Studio (11).png"  transform="matrix(0.2961 0 0 0.2961 401 3817.7212)">
	</image>
	
		<image style="overflow:visible;" width="800" height="800" xlink:href="../../../../../Downloads/SP-Studio (10).png"  transform="matrix(0.2797 0 0 0.28 553.2277 3830.5457)">
	</image>
	
		<image style="overflow:visible;" width="225" height="225" xlink:href="../../../../../Downloads/download.png"  transform="matrix(0.7432 0 0 0.7432 571.7347 2014.8328)">
	</image>
	
		<image style="overflow:visible;" width="1200" height="1200" xlink:href="../../../../../Downloads/pngtree-cute-unicorn-png-image_9151287.png"  transform="matrix(0.1041 0 0 0.1041 472.9362 2039.8981)">
	</image>
	
		<image style="overflow:visible;" width="800" height="800" xlink:href="../../../../../Downloads/SP-Studio (12).png"  transform="matrix(0.5016 0 0 0.5016 331.6326 4537.6162)">
	</image>
</g>
</svg>
